<mxfile host="app.diagrams.net" modified="2023-09-17T10:13:57.353Z" agent="Mozilla/5.0 (Windows NT 10.0; Win64; x64) AppleWebKit/537.36 (KHTML, like Gecko) Chrome/116.0.0.0 Safari/537.36" etag="s6ZJPdOIluTcLIAcilK4" version="21.7.5" type="device">
  <diagram name="Strona-1" id="JkMr8bW5VNp0ibh6uTf7">
    <mxGraphModel dx="794" dy="432" grid="1" gridSize="10" guides="1" tooltips="1" connect="1" arrows="1" fold="1" page="1" pageScale="1" pageWidth="827" pageHeight="1169" math="0" shadow="0">
      <root>
        <mxCell id="0" />
        <mxCell id="1" parent="0" />
        <mxCell id="jEHFsaDNUyKxxi9SMjbP-7" style="edgeStyle=orthogonalEdgeStyle;rounded=0;orthogonalLoop=1;jettySize=auto;html=1;exitX=1;exitY=0.5;exitDx=0;exitDy=0;entryX=0;entryY=0.5;entryDx=0;entryDy=0;" parent="1" source="jEHFsaDNUyKxxi9SMjbP-1" target="jEHFsaDNUyKxxi9SMjbP-2" edge="1">
          <mxGeometry relative="1" as="geometry" />
        </mxCell>
        <mxCell id="jEHFsaDNUyKxxi9SMjbP-8" style="edgeStyle=orthogonalEdgeStyle;rounded=0;orthogonalLoop=1;jettySize=auto;html=1;exitX=1;exitY=0.5;exitDx=0;exitDy=0;entryX=0;entryY=0.5;entryDx=0;entryDy=0;" parent="1" source="jEHFsaDNUyKxxi9SMjbP-1" target="jEHFsaDNUyKxxi9SMjbP-3" edge="1">
          <mxGeometry relative="1" as="geometry" />
        </mxCell>
        <mxCell id="jEHFsaDNUyKxxi9SMjbP-9" style="edgeStyle=orthogonalEdgeStyle;rounded=0;orthogonalLoop=1;jettySize=auto;html=1;exitX=1;exitY=0.5;exitDx=0;exitDy=0;entryX=0;entryY=0.5;entryDx=0;entryDy=0;strokeColor=#C7C7C7;" parent="1" source="jEHFsaDNUyKxxi9SMjbP-1" target="jEHFsaDNUyKxxi9SMjbP-4" edge="1">
          <mxGeometry relative="1" as="geometry" />
        </mxCell>
        <mxCell id="jEHFsaDNUyKxxi9SMjbP-1" value="dummy-gateway" style="rounded=0;whiteSpace=wrap;html=1;" parent="1" vertex="1">
          <mxGeometry x="80" y="240" width="120" height="60" as="geometry" />
        </mxCell>
        <mxCell id="jEHFsaDNUyKxxi9SMjbP-12" style="edgeStyle=orthogonalEdgeStyle;rounded=0;orthogonalLoop=1;jettySize=auto;html=1;entryX=0;entryY=0.5;entryDx=0;entryDy=0;" parent="1" source="jEHFsaDNUyKxxi9SMjbP-2" target="jEHFsaDNUyKxxi9SMjbP-5" edge="1">
          <mxGeometry relative="1" as="geometry" />
        </mxCell>
        <mxCell id="jEHFsaDNUyKxxi9SMjbP-2" value="dummy-profile-service with GRPC interface" style="rounded=0;whiteSpace=wrap;html=1;" parent="1" vertex="1">
          <mxGeometry x="354" y="160" width="120" height="60" as="geometry" />
        </mxCell>
        <mxCell id="jEHFsaDNUyKxxi9SMjbP-10" style="edgeStyle=orthogonalEdgeStyle;rounded=0;orthogonalLoop=1;jettySize=auto;html=1;entryX=0;entryY=0.5;entryDx=0;entryDy=0;" parent="1" source="jEHFsaDNUyKxxi9SMjbP-3" target="jEHFsaDNUyKxxi9SMjbP-6" edge="1">
          <mxGeometry relative="1" as="geometry" />
        </mxCell>
        <mxCell id="jEHFsaDNUyKxxi9SMjbP-3" value="dummy-score-service with GRPC interface" style="rounded=0;whiteSpace=wrap;html=1;" parent="1" vertex="1">
          <mxGeometry x="354" y="290" width="120" height="60" as="geometry" />
        </mxCell>
        <mxCell id="jEHFsaDNUyKxxi9SMjbP-11" style="edgeStyle=orthogonalEdgeStyle;rounded=0;orthogonalLoop=1;jettySize=auto;html=1;entryX=0;entryY=0.5;entryDx=0;entryDy=0;" parent="1" source="jEHFsaDNUyKxxi9SMjbP-4" target="jEHFsaDNUyKxxi9SMjbP-6" edge="1">
          <mxGeometry relative="1" as="geometry" />
        </mxCell>
        <mxCell id="jEHFsaDNUyKxxi9SMjbP-4" value="dummy-score-service with http1_1 rest api" style="rounded=0;whiteSpace=wrap;html=1;strokeColor=#c7c7c7;" parent="1" vertex="1">
          <mxGeometry x="354" y="360" width="120" height="60" as="geometry" />
        </mxCell>
        <mxCell id="jEHFsaDNUyKxxi9SMjbP-5" value="" style="image;aspect=fixed;perimeter=ellipsePerimeter;html=1;align=center;shadow=0;dashed=0;spacingTop=3;image=img/lib/active_directory/databases.svg;" parent="1" vertex="1">
          <mxGeometry x="590" y="166" width="50" height="49" as="geometry" />
        </mxCell>
        <mxCell id="jEHFsaDNUyKxxi9SMjbP-6" value="" style="image;aspect=fixed;perimeter=ellipsePerimeter;html=1;align=center;shadow=0;dashed=0;spacingTop=3;image=img/lib/active_directory/databases.svg;" parent="1" vertex="1">
          <mxGeometry x="590" y="330" width="50" height="49" as="geometry" />
        </mxCell>
        <mxCell id="jEHFsaDNUyKxxi9SMjbP-13" value="rw" style="text;html=1;strokeColor=none;fillColor=none;align=center;verticalAlign=middle;whiteSpace=wrap;rounded=0;" parent="1" vertex="1">
          <mxGeometry x="474" y="166" width="60" height="30" as="geometry" />
        </mxCell>
        <mxCell id="jEHFsaDNUyKxxi9SMjbP-15" value="rw" style="text;html=1;strokeColor=none;fillColor=none;align=center;verticalAlign=middle;whiteSpace=wrap;rounded=0;" parent="1" vertex="1">
          <mxGeometry x="474" y="290" width="60" height="30" as="geometry" />
        </mxCell>
        <mxCell id="jEHFsaDNUyKxxi9SMjbP-16" value="ro" style="text;html=1;strokeColor=none;fillColor=none;align=center;verticalAlign=middle;whiteSpace=wrap;rounded=0;" parent="1" vertex="1">
          <mxGeometry x="474" y="360" width="60" height="30" as="geometry" />
        </mxCell>
        <mxCell id="jEHFsaDNUyKxxi9SMjbP-17" value="Scores database" style="text;html=1;strokeColor=none;fillColor=none;align=center;verticalAlign=middle;whiteSpace=wrap;rounded=0;" parent="1" vertex="1">
          <mxGeometry x="640" y="339.5" width="60" height="30" as="geometry" />
        </mxCell>
        <mxCell id="jEHFsaDNUyKxxi9SMjbP-18" value="Profiles database" style="text;html=1;strokeColor=none;fillColor=none;align=center;verticalAlign=middle;whiteSpace=wrap;rounded=0;" parent="1" vertex="1">
          <mxGeometry x="640" y="175" width="60" height="30" as="geometry" />
        </mxCell>
        <mxCell id="jEHFsaDNUyKxxi9SMjbP-19" value="&lt;font style=&quot;font-size: 8px;&quot;&gt;DISABLED BY DEFAULT&lt;/font&gt;" style="text;html=1;strokeColor=#b85450;fillColor=#f8cecc;align=center;verticalAlign=middle;whiteSpace=wrap;rounded=0;" parent="1" vertex="1">
          <mxGeometry x="354" y="410" width="66" height="30" as="geometry" />
        </mxCell>
      </root>
    </mxGraphModel>
  </diagram>
</mxfile>
